{
  "accessors": [
    {
      "bufferView": 1,
      "componentType": 5126,
      "count": 21139,
      "max": [
        1.5397000312805176,
        1.7599999904632568,
        1.585800051689148
      ],
      "min": [
        -1.4844800233840942,
        -2.6616499423980713,
        -1.6593300104141235
      ],
      "type": "VEC3"
    },
    {
      "bufferView": 1,
      "byteOffset": 253668,
      "componentType": 5126,
      "count": 21139,
      "max": [
        0.9997865557670593,
        0.9999749064445496,
        0.9995863437652588
      ],
      "min": [
        -0.99993896484375,
        -1.0,
        -0.9997966885566711
      ],
      "type": "VEC3"
    },
    {
      "bufferView": 0,
      "componentType": 5125,
      "count": 126822,
      "type": "SCALAR"
    },
    {
      "bufferView": 1,
      "byteOffset": 507336,
      "componentType": 5126,
      "count": 21139,
      "max": [
        1.5712699890136719,
        1.7920700311660767,
        1.6182199716567993
      ],
      "min": [
        -1.5167399644851685,
        -2.6940701007843018,
        -1.6910699605941772
      ],
      "type": "VEC3"
    },
    {
      "bufferView": 1,
      "byteOffset": 761004,
      "componentType": 5126,
      "count": 21139,
      "max": [
        0.9999375343322754,
        1.0,
        0.9997168183326721
      ],
      "min": [
        -0.9996383190155029,
        -0.9999956488609314,
        -0.9995836019515991
      ],
      "type": "VEC3"
    },
    {
      "bufferView": 0,
      "byteOffset": 507288,
      "componentType": 5125,
      "count": 126822,
      "type": "SCALAR"
    }
  ],
  "asset": {
    "extras": {
      "author": "JuanG3D (https://sketchfab.com/juang3d)",
      "license": "CC-BY-4.0 (http://creativecommons.org/licenses/by/4.0/)",
      "source": "https://sketchfab.com/3d-models/day32-woodstock-f951ea2619474a65a95b4f5bdd0c8f44",
      "title": "Day#32: Woodstock"
    },
    "generator": "Sketchfab-10.87.0",
    "version": "2.0"
  },
  "bufferViews": [
    {
      "buffer": 0,
      "byteLength": 1014576,
      "name": "floatBufferViews",
      "target": 34963
    },
    {
      "buffer": 0,
      "byteLength": 1014672,
      "byteOffset": 1014576,
      "byteStride": 12,
      "name": "floatBufferViews",
      "target": 34962
    }
  ],
  "buffers": [
    {
      "byteLength": 2029248,
      "uri": "scene.bin"
    }
  ],
  "materials": [
    {
      "alphaMode": "BLEND",
      "name": "Negro",
      "pbrMetallicRoughness": {
        "baseColorFactor": [
          0.0,
          0.0,
          0.0,
          0.8724318210433865
        ],
        "metallicFactor": 0.0
      }
    },
    {
      "doubleSided": true,
      "emissiveFactor": [
        0.5209648084340606,
        0.47005617874329614,
        0.0
      ],
      "name": "Woodstock",
      "pbrMetallicRoughness": {
        "baseColorFactor": [
          0.8000000715255737,
          0.5692198276519773,
          0.002955536590889102,
          1.0
        ],
        "metallicFactor": 0.3980084305289407,
        "roughnessFactor": 0.6
      }
    }
  ],
  "meshes": [
    {
      "name": "yourMesh_0",
      "primitives": [
        {
          "attributes": {
            "NORMAL": 1,
            "POSITION": 0
          },
          "indices": 2,
          "material": 1,
          "mode": 4
        }
      ]
    },
    {
      "name": "yourMesh.001_0",
      "primitives": [
        {
          "attributes": {
            "NORMAL": 4,
            "POSITION": 3
          },
          "indices": 5,
          "material": 0,
          "mode": 4
        }
      ]
    }
  ],
  "nodes": [
    {
      "children": [
        1
      ],
      "matrix": [
        1.0,
        0.0,
        0.0,
        0.0,
        0.0,
        2.220446049250313e-16,
        -1.0,
        0.0,
        0.0,
        1.0,
        2.220446049250313e-16,
        0.0,
        0.0,
        0.0,
        0.0,
        1.0
      ],
      "name": "Sketchfab_model"
    },
    {
      "children": [
        2,
        4
      ],
      "name": "Root"
    },
    {
      "children": [
        3
      ],
      "matrix": [
        1.0,
        0.0,
        0.0,
        0.0,
        0.0,
        -0.0,
        1.0,
        0.0,
        0.0,
        -1.0,
        -0.0,
        0.0,
        0.0,
        0.0,
        0.0,
        1.0
      ],
      "name": "yourMesh"
    },
    {
      "mesh": 0,
      "name": "yourMesh_0"
    },
    {
      "children": [
        5
      ],
      "matrix": [
        1.0,
        0.0,
        0.0,
        0.0,
        0.0,
        -0.0,
        1.0,
        0.0,
        0.0,
        -1.0,
        -0.0,
        0.0,
        0.0,
        0.0,
        0.0,
        1.0
      ],
      "name": "yourMesh.001"
    },
    {
      "mesh": 1,
      "name": "yourMesh.001_0"
    }
  ],
  "scene": 0,
  "scenes": [
    {
      "name": "Sketchfab_Scene",
      "nodes": [
        0
      ]
    }
  ]
}
